<svg width="130" height="130" viewBox="0 0 130 130" fill="none" xmlns="http://www.w3.org/2000/svg">
<rect width="130" height="130" rx="65" fill="#F4F5FA"/>
<path d="M30.2779 75.915C30.2996 75.6874 30.4845 75.5132 30.7104 75.4785C31.2252 75.3995 31.6135 75.2291 31.8752 74.9674C32.2218 74.6424 32.3951 74.155 32.3951 73.5052V56.7712H35.858C37.1398 56.7712 38.1789 57.8103 38.1789 59.0921V73.6351C38.1789 75.6281 37.6374 77.1119 36.5543 78.0867C35.4299 79.0586 33.3692 79.6462 30.9282 79.7734C30.3814 79.8019 29.9523 79.3282 30.0043 78.7831L30.2779 75.915Z" fill="#1B1B1B"/>
<path d="M45.4209 66.7466C45.4209 69.0211 46.4824 70.1584 48.6053 70.1584C49.0486 70.1584 49.4464 70.107 49.7986 70.0043C51.356 69.55 52.7348 68.1438 54.3571 68.1438C55.7742 68.1438 56.853 69.4977 56.0866 70.6897C55.5957 71.4533 54.9649 72.0993 54.1941 72.6279C52.6778 73.646 50.7607 74.155 48.4428 74.155C45.8433 74.155 43.7746 73.5268 42.2366 72.2704C40.5469 70.9057 39.7021 68.967 39.7021 66.4541C39.7021 63.4648 40.6228 61.0169 42.464 59.1107C44.2187 57.2477 46.5257 56.3163 49.3851 56.3163C52.1795 56.3163 54.3241 57.1502 55.8188 58.8182C57.3351 60.5729 57.855 62.9015 57.3784 65.8043L57.2485 66.6166H45.4209V66.7466ZM49.3851 60.1505C47.6305 60.1505 46.4391 61.2119 45.8109 63.3348H51.9196C52.0929 61.2119 51.2481 60.1505 49.3851 60.1505Z" fill="#1B1B1B"/>
<path d="M65.6214 74.155C61.6356 74.155 59.6426 72.2054 59.6426 68.3063V60.7353H57.5956V56.7712H59.6426V53.2294H63.138C64.4198 53.2294 65.4589 54.2685 65.4589 55.5503V56.7712H68.8057V60.7353H65.4589V67.7539C65.4589 68.9453 66.033 69.541 67.1811 69.541C67.8309 69.541 68.3833 69.4435 68.8382 69.2486V73.6676C67.7768 73.9926 66.7045 74.155 65.6214 74.155Z" fill="#1B1B1B"/>
<path d="M78.072 74.155C74.0862 74.155 72.0932 72.2054 72.0932 68.3063V60.7353H70.0462V56.7712H72.0932V53.2294H75.5886C76.8704 53.2294 77.9095 54.2685 77.9095 55.5503V56.7712H81.2563V60.7353H77.9095V67.7539C77.9095 68.9453 78.4836 69.541 79.6317 69.541C80.2815 69.541 80.8339 69.4435 81.2888 69.2486V73.6676C80.2274 73.9926 79.1551 74.155 78.072 74.155Z" fill="#1B1B1B"/>
<path d="M86.7348 71.848L82.6082 56.7712H88.6519L90.6015 65.9018L95.1831 56.7712H98.6054C99.6661 56.7712 100.337 57.9095 99.8241 58.8376L88.4245 79.4514H83.3883C83.0363 79.4514 82.8124 79.0751 82.9803 78.7658L86.7348 71.848Z" fill="#1B1B1B"/>
<path d="M36 55.1976H33.5476C32.905 55.1976 32.4568 54.5605 32.6737 53.9557L33.1192 52.7138C33.3839 51.9761 34.0832 51 34.8669 51H37.5C38.1426 51 38.5909 51.6372 38.3738 52.242L37.928 53.484C37.6633 54.2216 36.7836 55.1976 36 55.1976Z" fill="#1B1B1B"/>
</svg>
